<svg xmlns="http://www.w3.org/2000/svg" viewBox="0 0 64 64" width="64" height="64">
  <defs>
    <linearGradient id="g" x1="0" y1="0" x2="1" y2="1">
      <stop offset="0%" stop-color="#6366f1" />
      <stop offset="100%" stop-color="#4f46e5" />
    </linearGradient>
  </defs>
  <rect width="64" height="64" rx="14" fill="url(#g)" />
  <g fill="white">
    <rect x="14" y="20" width="14" height="32" rx="2" />
    <rect x="32" y="14" width="14" height="38" rx="2" />
    <rect x="18" y="26" width="3" height="3" />
    <rect x="22" y="26" width="3" height="3" />
    <rect x="18" y="32" width="3" height="3" />
    <rect x="22" y="32" width="3" height="3" />
    <rect x="18" y="38" width="3" height="3" />
    <rect x="22" y="38" width="3" height="3" />
    <rect x="36" y="20" width="3" height="3" />
    <rect x="40" y="20" width="3" height="3" />
    <rect x="36" y="26" width="3" height="3" />
    <rect x="40" y="26" width="3" height="3" />
    <rect x="36" y="32" width="3" height="3" />
    <rect x="40" y="32" width="3" height="3" />
    <rect x="36" y="38" width="3" height="3" />
    <rect x="40" y="38" width="3" height="3" />
  </g>
</svg>
